HIERARCHY
ROOT joint_Root
{
	OFFSET 0.0 0.0 0.0
	CHANNELS 6 Xposition Yposition Zposition Zrotation Xrotation Yrotation 
	JOINT Hips
	{
		OFFSET -0.726466 93.3139 -2.00062
		CHANNELS 6 Xposition Yposition Zposition Zrotation Xrotation Yrotation 
		JOINT Spine
		{
			OFFSET 15.7357 0.0 0.0
			CHANNELS 6 Xposition Yposition Zposition Zrotation Xrotation Yrotation 
			JOINT Chest
			{
				OFFSET 8.98455 -0.406207 0.0
				CHANNELS 6 Xposition Yposition Zposition Zrotation Xrotation Yrotation 
				JOINT Neck
				{
					OFFSET 16.3773 0.0 0.0
					CHANNELS 6 Xposition Yposition Zposition Zrotation Xrotation Yrotation 
					JOINT Head
					{
						OFFSET 6.45672 0.0 0.0
						CHANNELS 6 Xposition Yposition Zposition Zrotation Xrotation Yrotation 
						End Site
						{
							OFFSET 0.0 0.0 0.0
						}
					}
				}
				JOINT Shoulder_L
				{
					OFFSET 12.9942 -0.242716 4.98039
					CHANNELS 6 Xposition Yposition Zposition Zrotation Xrotation Yrotation 
					JOINT UpperArm_L
					{
						OFFSET 5.34809 0.0 0.0
						CHANNELS 6 Xposition Yposition Zposition Zrotation Xrotation Yrotation 
						JOINT LowerArm_L
						{
							OFFSET 24.3286 1.87007e-05 0.0
							CHANNELS 6 Xposition Yposition Zposition Zrotation Xrotation Yrotation 
							JOINT Hand_L
							{
								OFFSET 22.2916 0.0 0.0
								CHANNELS 6 Xposition Yposition Zposition Zrotation Xrotation Yrotation 
								End Site
								{
									OFFSET 0.0 0.0 0.0
								}
							}
						}
					}
				}
				JOINT Shoulder_R
				{
					OFFSET 12.9945 -0.242716 -4.98039
					CHANNELS 6 Xposition Yposition Zposition Zrotation Xrotation Yrotation 
					JOINT UpperArm_R
					{
						OFFSET -5.34813 0.0 0.0
						CHANNELS 6 Xposition Yposition Zposition Zrotation Xrotation Yrotation 
						JOINT LowerArm_R
						{
							OFFSET -24.3289 0.000322201 0.0
							CHANNELS 6 Xposition Yposition Zposition Zrotation Xrotation Yrotation 
							JOINT Hand_R
							{
								OFFSET -22.2915 -0.000108084 0.0
								CHANNELS 6 Xposition Yposition Zposition Zrotation Xrotation Yrotation 
								End Site
								{
									OFFSET 0.0 0.0 0.0
								}
							}
						}
					}
				}
			}
		}
		JOINT UpperLeg_L
		{
			OFFSET -2.19248 -6.46944 0.0
			CHANNELS 6 Xposition Yposition Zposition Zrotation Xrotation Yrotation 
			JOINT LowerLeg_L
			{
				OFFSET 39.0811 0.0 -1.23785e-05
				CHANNELS 6 Xposition Yposition Zposition Zrotation Xrotation Yrotation 
				JOINT Foot_L
				{
					OFFSET 40.9854 0.0 -1.26872e-05
					CHANNELS 6 Xposition Yposition Zposition Zrotation Xrotation Yrotation 
					JOINT Toes_L
					{
						OFFSET 11.7543 0.0 0.0
						CHANNELS 6 Xposition Yposition Zposition Zrotation Xrotation Yrotation 
						End Site
						{
							OFFSET 0.0 0.0 0.0
						}
					}
				}
			}
		}
		JOINT UpperLeg_R
		{
			OFFSET -2.19251 6.46944 0.0
			CHANNELS 6 Xposition Yposition Zposition Zrotation Xrotation Yrotation 
			JOINT LowerLeg_R
			{
				OFFSET -39.0811 -0.00228153 -0.0401928
				CHANNELS 6 Xposition Yposition Zposition Zrotation Xrotation Yrotation 
				JOINT Foot_R
				{
					OFFSET -40.9854 0.0 0.0
					CHANNELS 6 Xposition Yposition Zposition Zrotation Xrotation Yrotation 
					JOINT Toes_R
					{
						OFFSET -11.7543 0.0 0.0
						CHANNELS 6 Xposition Yposition Zposition Zrotation Xrotation Yrotation 
						End Site
						{
							OFFSET 0.0 0.0 0.0
						}
					}
				}
			}
		}
	}
}
MOTION
Frames:	4
Frame Time:	0.0333333
0.000000 0.000000 0.000000 0.000000 0.000000 -0.000000 -0.736508 92.263400 -1.284310 88.171800 -0.884772 5.100430 15.735700 0.000005 -0.000001 82.053100 86.170100 -81.546200 8.984550 -0.406207 -0.000000 -0.174763 -1.093850 1.011650 16.377300 -0.000001 -0.000001 3.362880 -2.010470 0.344983 6.456720 -0.000001 -0.000000 6.148050 -2.224980 -1.524340 12.994200 -0.242716 4.980390 -87.521200 -7.932330 -72.583600 5.348090 -0.000007 -0.000001 -82.340300 -36.104700 -85.906300 24.328600 0.000019 0.000005 9.819450 1.379170 -82.083200 22.291600 -0.000001 0.000005 23.609100 5.607020 -11.771300 12.994500 -0.242716 -4.980390 90.701200 -2.407950 -73.758200 -5.348130 -0.000001 -0.000004 -76.001500 -33.286500 -95.800500 -24.328900 0.000322 -0.000009 15.800900 3.583140 -77.548000 -22.291500 -0.000108 -0.000004 26.098300 5.432600 -4.028680 -2.192480 -6.469440 -0.000000 -175.553000 -6.646810 -1.873710 39.081100 -0.000007 -0.000012 -0.102130 0.238509 23.180800 40.985400 -0.000006 -0.000013 -0.285088 2.951800 -66.382500 11.754300 -0.000000 0.000003 -0.000037 -0.000431 -16.594400 -2.192510 6.469440 -0.000001 179.237000 15.198300 -178.668000 -39.081100 -0.002282 -0.040193 -0.019083 0.062712 19.660000 -40.985400 0.000008 0.000006 3.830600 6.463970 -66.298000 -11.754300 -0.000006 -0.000006 -0.006247 -0.073065 -19.546900
0.000000 0.000000 0.000000 0.000000 0.000000 -0.000000 -0.740623 92.267000 -1.293580 88.124200 -0.975919 5.085860 15.735700 0.000005 -0.000001 82.213000 86.172600 -81.694800 8.984550 -0.406207 -0.000000 -0.176687 -1.072820 1.034210 16.377300 -0.000001 -0.000001 3.300380 -2.043890 0.396717 6.456720 -0.000001 -0.000000 6.205900 -2.293960 -1.482980 12.994200 -0.242716 4.980390 -87.512700 -7.939500 -72.542700 5.348090 -0.000007 -0.000001 -82.240500 -36.139200 -85.906300 24.328600 0.000019 0.000005 9.866660 1.376600 -82.135800 22.291600 -0.000001 0.000005 23.691700 5.607410 -11.795600 12.994500 -0.242716 -4.980390 90.708200 -2.420220 -73.683200 -5.348130 -0.000001 -0.000004 -75.818100 -33.362000 -95.816000 -24.328900 0.000322 -0.000009 15.916400 3.623490 -77.505500 -22.291500 -0.000108 -0.000004 26.079900 5.431420 -3.987770 -2.192480 -6.469440 -0.000000 -175.513000 -6.639160 -1.888990 39.081100 -0.000007 -0.000012 -0.101665 0.237286 23.192700 40.985400 -0.000006 -0.000013 -0.314501 2.825910 -66.387600 11.754300 -0.000000 0.000003 -0.000035 -0.000412 -16.593600 -2.192510 6.469440 -0.000001 179.313000 15.183300 -178.688000 -39.081100 -0.002282 -0.040193 -0.015946 0.054017 19.631900 -40.985400 0.000008 0.000006 3.962730 6.489410 -66.286700 -11.754300 -0.000006 -0.000006 -0.006355 -0.074026 -19.586100
0.000000 0.000000 0.000000 0.000000 0.000000 -0.000000 -0.736098 92.256800 -1.289270 88.115700 -1.051610 5.119150 15.735700 0.000005 -0.000001 82.247000 86.169600 -81.735800 8.984550 -0.406207 -0.000000 -0.170302 -1.068590 1.020220 16.377300 -0.000001 -0.000001 3.350600 -2.064300 0.419219 6.456720 -0.000001 -0.000000 6.304020 -2.325030 -1.405380 12.994200 -0.242716 4.980390 -87.500900 -7.947730 -72.481700 5.348090 -0.000007 -0.000001 -82.032500 -36.163900 -85.893500 24.328600 0.000019 0.000005 9.694130 1.347790 -82.160300 22.291600 -0.000001 0.000005 23.654000 5.608440 -11.860100 12.994500 -0.242716 -4.980390 90.709100 -2.414210 -73.626800 -5.348130 -0.000001 -0.000004 -75.684200 -33.336900 -95.845800 -24.328900 0.000322 -0.000009 15.860100 3.632780 -77.429100 -22.291500 -0.000108 -0.000004 26.058500 5.431710 -3.997780 -2.192480 -6.469440 -0.000000 -175.497000 -6.705640 -1.870440 39.081100 -0.000007 -0.000012 -0.102336 0.238071 23.260800 40.985400 -0.000006 -0.000013 -0.308582 2.825400 -66.435500 11.754300 -0.000000 0.000003 -0.000043 -0.000494 -16.596800 -2.192510 6.469440 -0.000001 179.289000 15.119200 -178.670000 -39.081100 -0.002282 -0.040193 -0.019545 0.063958 19.673300 -40.985400 0.000008 0.000006 3.818910 6.554780 -66.289400 -11.754300 -0.000006 -0.000006 -0.006080 -0.071564 -19.485700
0.000000 0.000000 0.000000 0.000000 0.000000 -0.000000 -0.727524 92.259700 -1.272650 88.106500 -1.085860 5.137230 15.735700 0.000005 -0.000001 81.994600 86.166800 -81.487300 8.984550 -0.406207 -0.000000 -0.169084 -1.102550 1.012520 16.377300 -0.000001 -0.000001 3.379200 -2.075130 0.447401 6.456720 -0.000001 -0.000000 6.478370 -2.317040 -1.401020 12.994200 -0.242716 4.980390 -87.497200 -7.928250 -72.416700 5.348090 -0.000007 -0.000001 -81.792100 -36.224000 -85.901500 24.328600 0.000019 0.000005 9.703190 1.344210 -82.188200 22.291600 -0.000001 0.000005 23.443100 5.607420 -11.795900 12.994500 -0.242716 -4.980390 90.704000 -2.389220 -73.577400 -5.348130 -0.000001 -0.000004 -75.561600 -33.256500 -95.933200 -24.328900 0.000322 -0.000009 15.774000 3.644290 -77.320500 -22.291500 -0.000108 -0.000004 26.048200 5.431120 -3.977350 -2.192480 -6.469440 -0.000000 -175.489000 -6.707160 -1.830020 39.081100 -0.000007 -0.000012 -0.102395 0.238446 23.240000 40.985400 -0.000006 -0.000013 -0.310874 2.803110 -66.435400 11.754300 -0.000000 0.000003 -0.000043 -0.000500 -16.597000 -2.192510 6.469440 -0.000001 179.305000 15.090600 -178.645000 -39.081100 -0.002282 -0.040193 -0.016487 0.055420 19.668300 -40.985400 0.000008 0.000006 3.963380 6.530090 -66.312100 -11.754300 -0.000006 -0.000006 -0.006061 -0.071384 -19.478400
